<svg width="1042" height="873" viewBox="0 0 1042 873" fill="none" xmlns="http://www.w3.org/2000/svg">
<g opacity="0.9">
<g filter="url(#filter0_ii)">
<path fill-rule="evenodd" clip-rule="evenodd" d="M457.551 125.144H370.569V200.875H615.667V125.144H528.317V152C528.317 152.552 527.87 153 527.317 153H458.551C458.342 153 458.148 152.936 457.988 152.827C457.724 152.647 457.551 152.344 457.551 152V125.144Z" fill="white"/>
</g>
</g>
<g opacity="0.93">
<path d="M1001.05 273.126C1001.05 255.304 986.605 240.856 968.782 240.856H858.052V668.856H968.782C986.605 668.856 1001.05 654.408 1001.05 636.586V273.126Z" fill="white"/>
</g>
<rect x="170" y="240.856" width="657.337" height="428" fill="white" fill-opacity="0.7"/>
<path fill-rule="evenodd" clip-rule="evenodd" d="M40.9478 273.126C40.9478 255.304 55.3955 240.856 73.2178 240.856H140.348V668.856H73.2178C55.3955 668.856 40.9478 654.408 40.9478 636.586V273.126ZM80.21 488.025C80.21 481.875 85.1963 476.888 91.3472 476.888C97.498 476.888 102.484 481.875 102.484 488.025V513.438C102.484 519.589 97.498 524.576 91.3472 524.576C85.1963 524.576 80.21 519.589 80.21 513.438V488.025ZM91.6479 591.939C103.951 591.939 113.924 581.966 113.924 569.663C113.924 557.36 103.951 547.387 91.6479 547.387C79.3452 547.387 69.3721 557.36 69.3721 569.663C69.3721 581.966 79.3452 591.939 91.6479 591.939Z" fill="white"/>
<defs>
<filter id="filter0_ii" x="370.569" y="125.144" width="245.098" height="76.7305" filterUnits="userSpaceOnUse" color-interpolation-filters="sRGB">
<feFlood flood-opacity="0" result="BackgroundImageFix"/>
<feBlend mode="normal" in="SourceGraphic" in2="BackgroundImageFix" result="shape"/>
<feColorMatrix in="SourceAlpha" type="matrix" values="0 0 0 0 0 0 0 0 0 0 0 0 0 0 0 0 0 0 127 0" result="hardAlpha"/>
<feOffset dy="-0.5"/>
<feComposite in2="hardAlpha" operator="arithmetic" k2="-1" k3="1"/>
<feColorMatrix type="matrix" values="0 0 0 0 1 0 0 0 0 1 0 0 0 0 1 0 0 0 0.1 0"/>
<feBlend mode="normal" in2="shape" result="effect1_innerShadow"/>
<feColorMatrix in="SourceAlpha" type="matrix" values="0 0 0 0 0 0 0 0 0 0 0 0 0 0 0 0 0 0 127 0" result="hardAlpha"/>
<feOffset dy="1.5"/>
<feGaussianBlur stdDeviation="0.5"/>
<feComposite in2="hardAlpha" operator="arithmetic" k2="-1" k3="1"/>
<feColorMatrix type="matrix" values="0 0 0 0 1 0 0 0 0 1 0 0 0 0 1 0 0 0 0.2 0"/>
<feBlend mode="normal" in2="effect1_innerShadow" result="effect2_innerShadow"/>
</filter>
</defs>
</svg>
