<svg width="215" height="49" viewBox="0 0 215 49" fill="none" xmlns="http://www.w3.org/2000/svg">
<g clip-path="url(#clip0)">
<path fill-rule="evenodd" clip-rule="evenodd" d="M47.4793 16.8102C50.481 22.5034 49.733 29.2384 46.1118 34.1758L48.4822 41.7356L41.0139 38.7414C40.8926 38.8114 40.77 38.88 40.6463 38.9474C32.7053 43.2699 22.8898 40.3669 18.7227 32.4633C14.5556 24.5596 17.6148 14.6485 25.5557 10.326C33.4966 6.00345 43.3121 8.90652 47.4793 16.8102ZM28.9531 35.3887C28.9562 35.5127 28.9592 35.6415 28.9592 35.7763C29.1804 35.6994 29.3928 35.6277 29.5989 35.5583C30.026 35.4142 30.4253 35.2794 30.818 35.1264C36.6983 32.8313 39.9291 27.6072 39.3649 21.269C39.1967 19.3771 38.5217 17.7138 37.1016 16.4257C34.7305 14.2752 31.2923 14.3426 29.2027 16.5943C27.5667 18.3572 27.3744 21.0443 28.7398 23.0624C29.9917 24.9129 32.3378 25.4966 34.5193 24.5009C35.275 24.156 35.6059 24.3772 35.5841 25.2626C35.5073 28.3808 34.1023 30.7812 31.7319 32.6046C31.2665 32.9627 30.7517 33.2515 30.2363 33.5407C29.9414 33.7061 29.6464 33.8716 29.3604 34.0502C29.1992 34.1509 29.0015 34.3294 28.9774 34.496C28.9365 34.7779 28.9452 35.0675 28.9531 35.3887Z" fill="white"/>
</g>
<path d="M59.2393 19.5553H61.2359L64.2064 29.6599H64.2551L68.4918 19.5553H70.4153L74.6519 29.6599H74.7006L77.6711 19.5553H79.6677L75.8207 32.46H74.0189L69.49 21.6492H69.4414L64.8882 32.46H63.1107L59.2393 19.5553ZM81.8138 29.5138C81.2132 28.4749 80.9129 27.3062 80.9129 26.0076C80.9129 24.709 81.2132 23.5484 81.8138 22.5258C82.4144 21.4869 83.2504 20.6753 84.3217 20.0909C85.393 19.4903 86.5942 19.19 87.9253 19.19C89.2563 19.19 90.4575 19.4903 91.5289 20.0909C92.6002 20.6753 93.4362 21.4869 94.0368 22.5258C94.6536 23.5646 94.962 24.7253 94.962 26.0076C94.962 27.3062 94.6536 28.4749 94.0368 29.5138C93.4362 30.5527 92.6002 31.3643 91.5289 31.9486C90.4575 32.533 89.2563 32.8252 87.9253 32.8252C86.5942 32.8252 85.393 32.533 84.3217 31.9486C83.2504 31.3643 82.4144 30.5527 81.8138 29.5138ZM92.308 28.6616C92.7463 27.8987 92.9654 27.014 92.9654 26.0076C92.9654 25.0012 92.7463 24.1165 92.308 23.3536C91.886 22.5907 91.2935 21.9982 90.5306 21.5762C89.7677 21.1541 88.8992 20.9431 87.9253 20.9431C86.9676 20.9431 86.1073 21.1541 85.3443 21.5762C84.5814 21.9982 83.9808 22.5907 83.5426 23.3536C83.1205 24.1165 82.9095 25.0012 82.9095 26.0076C82.9095 27.014 83.1205 27.8987 83.5426 28.6616C83.9808 29.4245 84.5814 30.017 85.3443 30.439C86.1073 30.8611 86.9676 31.0721 87.9253 31.0721C88.8992 31.0721 89.7677 30.8611 90.5306 30.439C91.2935 30.017 91.886 29.4245 92.308 28.6616ZM97.6639 19.5553H99.5631V20.8214H99.6118C99.9852 20.3669 100.464 20.0098 101.048 19.75C101.633 19.4741 102.25 19.3361 102.899 19.3361C103.305 19.3361 103.646 19.3605 103.921 19.4092C104.214 19.4579 104.538 19.5309 104.895 19.6283L104.457 21.5275C104.084 21.4301 103.775 21.3652 103.532 21.3327C103.305 21.284 103.037 21.2596 102.728 21.2596C101.803 21.2596 101.056 21.5681 100.488 22.1849C99.9365 22.8017 99.6605 23.6702 99.6605 24.7902V32.46H97.6639V19.5553ZM107.009 14.6856H109.005V25.6667H109.054L116.237 19.5553H119.256L113.071 24.7658L119.572 32.46H116.967L111.61 26.032H111.562L109.005 28.2233V32.46H107.009V14.6856ZM123.628 30.853H123.579V32.46H121.656V14.6856H123.652V21.1866H123.701C124.237 20.5535 124.935 20.0666 125.795 19.7257C126.655 19.3686 127.589 19.19 128.595 19.19C129.877 19.19 131.03 19.4903 132.053 20.0909C133.091 20.6753 133.903 21.4869 134.487 22.5258C135.088 23.5646 135.388 24.7253 135.388 26.0076C135.388 27.3224 135.088 28.4993 134.487 29.5381C133.903 30.577 133.083 31.3886 132.028 31.973C130.989 32.5411 129.804 32.8252 128.473 32.8252C127.467 32.8252 126.534 32.6547 125.673 32.3139C124.829 31.9568 124.147 31.4698 123.628 30.853ZM133.392 26.0076C133.392 25.0012 133.189 24.1165 132.783 23.3536C132.377 22.5745 131.801 21.982 131.054 21.5762C130.308 21.1541 129.447 20.9431 128.473 20.9431C127.564 20.9431 126.745 21.1298 126.014 21.5031C125.284 21.8602 124.707 22.3553 124.285 22.9884C123.863 23.6052 123.652 24.287 123.652 25.0337V26.9815C123.652 27.7282 123.855 28.4181 124.261 29.0512C124.683 29.668 125.251 30.1631 125.965 30.5364C126.68 30.8935 127.475 31.0721 128.352 31.0721C129.894 31.0721 131.119 30.6176 132.028 29.7086C132.937 28.7833 133.392 27.5497 133.392 26.0076ZM137.623 26.0807C137.623 24.7171 137.915 23.5159 138.5 22.4771C139.084 21.4382 139.896 20.6347 140.934 20.0666C141.973 19.4822 143.158 19.19 144.489 19.19C145.755 19.19 146.9 19.4822 147.922 20.0666C148.945 20.6347 149.749 21.4382 150.333 22.4771C150.917 23.4997 151.21 24.6684 151.21 25.9833V26.7137H139.644C139.644 27.5578 139.863 28.3207 140.301 29.0025C140.74 29.668 141.324 30.1874 142.054 30.5608C142.801 30.9341 143.621 31.1208 144.514 31.1208C146.575 31.1208 148.15 30.2037 149.237 28.3694L150.82 29.4164C150.138 30.5364 149.262 31.3886 148.19 31.973C147.119 32.5411 145.893 32.8252 144.514 32.8252C143.15 32.8252 141.941 32.5492 140.886 31.9973C139.847 31.4454 139.043 30.6582 138.475 29.6355C137.907 28.6129 137.623 27.4279 137.623 26.0807ZM149.164 25.1067C149.116 24.3276 148.872 23.6215 148.434 22.9884C148.012 22.3391 147.452 21.8278 146.754 21.4544C146.056 21.0811 145.301 20.8944 144.489 20.8944C143.613 20.8944 142.809 21.0811 142.079 21.4544C141.365 21.8115 140.796 22.3148 140.374 22.964C139.952 23.5971 139.717 24.3113 139.668 25.1067H149.164ZM153.922 19.5553H155.87V21.1623H155.919C156.406 20.5454 157.063 20.0666 157.891 19.7257C158.719 19.3686 159.604 19.19 160.545 19.19C161.746 19.19 162.809 19.4254 163.735 19.8961C164.66 20.3506 165.374 20.9918 165.877 21.8197C166.397 22.6475 166.657 23.6052 166.657 24.6928V32.46H164.66V25.0824C164.66 23.8 164.287 22.7936 163.54 22.0631C162.809 21.3165 161.811 20.9431 160.545 20.9431C159.636 20.9431 158.833 21.1217 158.135 21.4788C157.437 21.8359 156.893 22.3391 156.503 22.9884C156.114 23.6215 155.919 24.3519 155.919 25.1798V32.46H153.922V19.5553ZM169.271 26.0076C169.271 24.7253 169.572 23.5646 170.172 22.5258C170.773 21.4869 171.593 20.6753 172.631 20.0909C173.687 19.4903 174.863 19.19 176.162 19.19C177.769 19.19 179.173 19.6121 180.374 20.4561C181.575 21.3002 182.355 22.4284 182.712 23.8406L180.788 24.3276C180.464 23.2075 179.895 22.3634 179.084 21.7953C178.288 21.2272 177.314 20.9431 176.162 20.9431C175.237 20.9431 174.401 21.1541 173.654 21.5762C172.907 21.982 172.323 22.5745 171.901 23.3536C171.479 24.1165 171.268 25.0012 171.268 26.0076C171.268 27.014 171.479 27.9068 171.901 28.6859C172.323 29.4489 172.907 30.0413 173.654 30.4634C174.401 30.8692 175.237 31.0721 176.162 31.0721C177.314 31.0721 178.288 30.788 179.084 30.2199C179.895 29.6518 180.464 28.8077 180.788 27.6877L182.712 28.1746C182.355 29.5868 181.575 30.715 180.374 31.5591C179.173 32.4031 177.769 32.8252 176.162 32.8252C174.863 32.8252 173.687 32.533 172.631 31.9486C171.593 31.3643 170.773 30.5527 170.172 29.5138C169.572 28.4749 169.271 27.3062 169.271 26.0076ZM185.309 14.6856H187.306V21.1623H187.354C187.858 20.5292 188.507 20.0422 189.302 19.7013C190.098 19.3605 190.974 19.19 191.932 19.19C193.133 19.19 194.196 19.4254 195.121 19.8961C196.047 20.3506 196.761 20.9918 197.264 21.8197C197.784 22.6475 198.043 23.6052 198.043 24.6928V32.46H196.047V25.0824C196.047 23.8 195.665 22.7936 194.902 22.0631C194.156 21.3165 193.125 20.9431 191.81 20.9431C190.95 20.9431 190.171 21.1217 189.473 21.4788C188.791 21.8359 188.255 22.3391 187.866 22.9884C187.492 23.6377 187.306 24.3681 187.306 25.1798V32.46H185.309V14.6856Z" fill="white"/>
<defs>
<clipPath id="clip0">
<rect width="33.8335" height="33.8335" fill="white" transform="translate(16.3521 8.19727)"/>
</clipPath>
</defs>
</svg>
