<svg width="256" height="256" viewBox="0 0 256 256" fill="none" xmlns="http://www.w3.org/2000/svg">
<path fill-rule="evenodd" clip-rule="evenodd" d="M28.875 29.875H227.125C234.029 29.875 239.625 35.4714 239.625 42.375V211.625C239.625 218.529 234.029 224.125 227.125 224.125H28.875C21.9714 224.125 16.375 218.529 16.375 211.625V42.375C16.375 35.4714 21.9714 29.875 28.875 29.875Z" fill="url(#paint0_linear)"/>
<path d="M22.875 42.375C22.875 39.0613 25.5613 36.375 28.875 36.375H227.125C230.439 36.375 233.125 39.0613 233.125 42.375V211.625C233.125 214.939 230.439 217.625 227.125 217.625H28.875C25.5613 217.625 22.875 214.939 22.875 211.625V42.375Z" fill="black"/>
<path fill-rule="evenodd" clip-rule="evenodd" d="M42.8878 110.875C42.8878 109.556 42.7851 108.451 42.9363 107.386C43.0007 106.932 43.5291 106.446 43.9601 106.172C46.0613 104.834 48.3439 103.766 50.3002 102.233C56.6368 97.2639 60.3929 90.723 60.5981 82.2264C60.6563 79.8139 59.772 79.2111 57.7516 80.151C51.9195 82.8642 45.648 81.2734 42.3009 76.2313C38.6509 70.7321 39.1648 63.4102 43.5383 58.6063C49.1245 52.4706 58.3162 52.287 64.6547 58.1468C68.4516 61.6569 70.2557 66.1892 70.7055 71.3444C72.2139 88.6151 63.5767 102.85 47.8567 109.104C46.3009 109.722 44.7055 110.231 42.8878 110.875Z" fill="white"/>
<rect x="82.875" y="102.875" width="33.5" height="8" fill="white"/>
<defs>
<linearGradient id="paint0_linear" x1="128" y1="36.375" x2="128" y2="217.625" gradientUnits="userSpaceOnUse">
<stop stop-color="#00C04E"/>
<stop offset="1" stop-color="#0095FF"/>
</linearGradient>
</defs>
</svg>
